<?xml version="1.0" encoding="utf-8"?>
<!-- Generator: Adobe Illustrator 23.0.2, SVG Export Plug-In . SVG Version: 6.00 Build 0)  -->
<svg version="1.1" id="图层_1" xmlns="http://www.w3.org/2000/svg" xmlns:xlink="http://www.w3.org/1999/xlink" x="0px" y="0px"
	 viewBox="0 0 2048 2048" style="enable-background:new 0 0 2048 2048;" xml:space="preserve">
<style type="text/css">
	.st0{fill:#5d6e50;}
	.st1{fill-rule:evenodd;clip-rule:evenodd;fill:#FFFFFF;}
</style>
<g id="Layer_3">
	<rect class="st0" width="2048" height="2048"/>
</g>
<g id="Elements">
	<path id="Element_5_" class="st1" d="M1621,297.2c0,0-16.5,239.6-115,451.2c-98.5,211.7-125.9,269.9-90.2,347.9
		c35.7,77.9,64.3,136,63.6,183.3c67-5.8,253.2-32.8,359.5-84.8c106.1-51.8,222.8-109.8,154.1-253.4
		C1924.2,798,1779.5,693.8,1621,297.2z"/>
	<path id="Element_4_" class="st1" d="M1980.3,1182.1c0,0-215.7,105.4-448.3,126.1c-232.6,20.8-296.5,25.9-346.3,95.8
		c-49.8,69.9-85.5,123.7-127,146.7c38.6,55.1,155.2,202.9,253.2,268.8c98,66.1,206.5,138,296.5,6.9
		C1698,1695.3,1716.1,1517.8,1980.3,1182.1z"/>
	<path id="Element_3_" class="st1" d="M1371,1918.8c0,0-199.2-134.2-333.3-325.3c-134.2-191.1-170.8-244-256.1-252.1
		s-149.8-12.3-190.4-36.6c-28.4,61-98.2,235.8-106.3,353.7c-8,117.9-16.3,248,142.2,260.1C785.6,1930.9,948.1,1857.7,1371,1918.8z"
		/>
	<path id="Element_2_" class="st1" d="M427,1734.9c0,0,16.5-239.6,115-451.2c98.5-211.7,125.9-269.9,90.2-347.9
		c-35.7-77.9-64.3-136-63.6-183.3c-67,5.8-253.2,32.8-359.5,84.8C103,889.1-13.7,947.2,55,1090.7
		C123.8,1233.9,268.5,1338.1,427,1734.9z"/>
	<path id="Element_1_" class="st1" d="M85.8,845.6c0,0,215.9-105.4,448.3-126.1c232.6-20.8,296.5-25.9,346.3-95.8
		c49.8-69.9,85.5-123.7,127-146.7C968.9,421.8,852.3,274,754.3,208.2c-98-66.1-206.5-138-296.5-6.9C368,332.3,350,509.8,85.8,845.6z
		"/>
	<path id="Element" class="st1" d="M690.7,129.3c0,0,199.2,134.2,333.3,325.3s170.8,243.8,256.1,252.1c85.3,8,149.8,12.3,190.4,36.6
		c28.4-61,98.2-235.8,106.3-353.7c8-117.9,16.3-248-142.2-260.1C1276.3,117.1,1113.5,190.3,690.7,129.3z"/>
</g>
</svg>
